<mxfile host="app.diagrams.net" modified="2021-05-24T12:03:57.051Z" agent="5.0 (Windows NT 10.0; Win64; x64) AppleWebKit/537.36 (KHTML, like Gecko) Chrome/90.0.4430.212 Safari/537.36" etag="4Iqx9XV7LG3Vzww_YrTW" version="14.7.0" type="github">
  <diagram id="kgpKYQtTHZ0yAKxKKP6v" name="Page-1">
    <mxGraphModel dx="1038" dy="617" grid="1" gridSize="10" guides="1" tooltips="1" connect="1" arrows="1" fold="1" page="1" pageScale="1" pageWidth="850" pageHeight="1100" math="0" shadow="0">
      <root>
        <mxCell id="0" />
        <mxCell id="1" parent="0" />
        <mxCell id="3nuBFxr9cyL0pnOWT2aG-1" value="系统网页界面" style="shape=umlLifeline;perimeter=lifelinePerimeter;container=1;collapsible=0;recursiveResize=0;rounded=0;shadow=0;strokeWidth=1;fontFamily=Noto Serif SC;fontSize=12;fontSource=https%3A%2F%2Ffonts.googleapis.com%2Fcss%3Ffamily%3DNoto%2BSerif%2BSC;" parent="1" vertex="1">
          <mxGeometry x="170" y="190" width="100" height="300" as="geometry" />
        </mxCell>
        <mxCell id="3nuBFxr9cyL0pnOWT2aG-2" value="" style="points=[];perimeter=orthogonalPerimeter;rounded=0;shadow=0;strokeWidth=1;fontSize=12;fontFamily=Noto Serif SC;fontSource=https%3A%2F%2Ffonts.googleapis.com%2Fcss%3Ffamily%3DNoto%2BSerif%2BSC;" parent="3nuBFxr9cyL0pnOWT2aG-1" vertex="1">
          <mxGeometry x="45" y="70" width="10" height="220" as="geometry" />
        </mxCell>
        <mxCell id="3nuBFxr9cyL0pnOWT2aG-5" value="以太坊智能合约审计" style="shape=umlLifeline;perimeter=lifelinePerimeter;container=1;collapsible=0;recursiveResize=0;rounded=0;shadow=0;strokeWidth=1;fontSize=12;fontFamily=Noto Serif SC;fontSource=https%3A%2F%2Ffonts.googleapis.com%2Fcss%3Ffamily%3DNoto%2BSerif%2BSC;" parent="1" vertex="1">
          <mxGeometry x="460" y="190" width="110" height="300" as="geometry" />
        </mxCell>
        <mxCell id="3nuBFxr9cyL0pnOWT2aG-6" value="" style="points=[];perimeter=orthogonalPerimeter;rounded=0;shadow=0;strokeWidth=1;fontSize=12;fontFamily=Noto Serif SC;fontSource=https%3A%2F%2Ffonts.googleapis.com%2Fcss%3Ffamily%3DNoto%2BSerif%2BSC;" parent="3nuBFxr9cyL0pnOWT2aG-5" vertex="1">
          <mxGeometry x="50" y="80" width="10" height="180" as="geometry" />
        </mxCell>
        <mxCell id="oefgWrXp9b9dmfqzYPv9-2" value="比特币信息分析" style="shape=umlLifeline;perimeter=lifelinePerimeter;container=1;collapsible=0;recursiveResize=0;rounded=0;shadow=0;strokeWidth=1;fontSize=12;fontFamily=Noto Serif SC;fontSource=https%3A%2F%2Ffonts.googleapis.com%2Fcss%3Ffamily%3DNoto%2BSerif%2BSC;" parent="1" vertex="1">
          <mxGeometry x="610" y="190" width="110" height="300" as="geometry" />
        </mxCell>
        <mxCell id="oefgWrXp9b9dmfqzYPv9-3" value="" style="points=[];perimeter=orthogonalPerimeter;rounded=0;shadow=0;strokeWidth=1;fontSize=12;fontFamily=Noto Serif SC;fontSource=https%3A%2F%2Ffonts.googleapis.com%2Fcss%3Ffamily%3DNoto%2BSerif%2BSC;" parent="oefgWrXp9b9dmfqzYPv9-2" vertex="1">
          <mxGeometry x="50" y="80" width="10" height="210" as="geometry" />
        </mxCell>
        <mxCell id="oefgWrXp9b9dmfqzYPv9-6" value="8.同步区块信息，训练模型" style="verticalAlign=bottom;endArrow=block;shadow=0;strokeWidth=1;exitX=1.067;exitY=0.068;exitDx=0;exitDy=0;exitPerimeter=0;fontSize=12;fontFamily=Noto Serif SC;fontSource=https%3A%2F%2Ffonts.googleapis.com%2Fcss%3Ffamily%3DNoto%2BSerif%2BSC;" parent="1" edge="1">
          <mxGeometry x="0.1478" y="-15" relative="1" as="geometry">
            <mxPoint x="670.67" y="290.91999999999996" as="sourcePoint" />
            <mxPoint x="670" y="308" as="targetPoint" />
            <Array as="points">
              <mxPoint x="720" y="290" />
              <mxPoint x="720" y="308" />
            </Array>
            <mxPoint x="15" y="15" as="offset" />
          </mxGeometry>
        </mxCell>
        <mxCell id="L75oaCOi5403GgUs-St9-1" value="" style="endArrow=classic;html=1;entryX=1.091;entryY=0.274;entryDx=0;entryDy=0;entryPerimeter=0;fontSize=12;fontFamily=Noto Serif SC;fontSource=https%3A%2F%2Ffonts.googleapis.com%2Fcss%3Ffamily%3DNoto%2BSerif%2BSC;" parent="1" target="3nuBFxr9cyL0pnOWT2aG-2" edge="1">
          <mxGeometry width="50" height="50" relative="1" as="geometry">
            <mxPoint x="370.07" y="320" as="sourcePoint" />
            <mxPoint x="225" y="321" as="targetPoint" />
          </mxGeometry>
        </mxCell>
        <mxCell id="L75oaCOi5403GgUs-St9-2" value="&lt;font style=&quot;font-size: 12px;&quot;&gt;3.返回存储的审计结果&lt;/font&gt;" style="edgeLabel;html=1;align=center;verticalAlign=middle;resizable=0;points=[];fontSize=12;fontFamily=Noto Serif SC;fontSource=https%3A%2F%2Ffonts.googleapis.com%2Fcss%3Ffamily%3DNoto%2BSerif%2BSC;" parent="L75oaCOi5403GgUs-St9-1" vertex="1" connectable="0">
          <mxGeometry x="-0.0105" y="1" relative="1" as="geometry">
            <mxPoint y="-10" as="offset" />
          </mxGeometry>
        </mxCell>
        <mxCell id="V7POjTPoLcevZi_3_g4T-1" value="" style="shape=umlActor;verticalLabelPosition=bottom;verticalAlign=top;html=1;outlineConnect=0;fontSize=12;fontFamily=Noto Serif SC;fontSource=https%3A%2F%2Ffonts.googleapis.com%2Fcss%3Ffamily%3DNoto%2BSerif%2BSC;" parent="1" vertex="1">
          <mxGeometry x="70" y="150" width="20" height="30" as="geometry" />
        </mxCell>
        <mxCell id="V7POjTPoLcevZi_3_g4T-2" value="用户" style="shape=umlLifeline;perimeter=lifelinePerimeter;container=1;collapsible=0;recursiveResize=0;rounded=0;shadow=0;strokeWidth=1;fontFamily=Noto Serif SC;fontSize=12;fontSource=https%3A%2F%2Ffonts.googleapis.com%2Fcss%3Ffamily%3DNoto%2BSerif%2BSC;" parent="1" vertex="1">
          <mxGeometry x="30" y="190" width="100" height="300" as="geometry" />
        </mxCell>
        <mxCell id="V7POjTPoLcevZi_3_g4T-3" value="" style="points=[];perimeter=orthogonalPerimeter;rounded=0;shadow=0;strokeWidth=1;fontSize=12;fontFamily=Noto Serif SC;fontSource=https%3A%2F%2Ffonts.googleapis.com%2Fcss%3Ffamily%3DNoto%2BSerif%2BSC;" parent="V7POjTPoLcevZi_3_g4T-2" vertex="1">
          <mxGeometry x="45" y="70" width="10" height="230" as="geometry" />
        </mxCell>
        <mxCell id="V7POjTPoLcevZi_3_g4T-7" value="1.提交合约审计请求" style="verticalAlign=bottom;endArrow=block;shadow=0;strokeWidth=1;fontSize=12;entryX=0;entryY=0.054;entryDx=0;entryDy=0;entryPerimeter=0;fontFamily=Noto Serif SC;fontSource=https%3A%2F%2Ffonts.googleapis.com%2Fcss%3Ffamily%3DNoto%2BSerif%2BSC;" parent="1" target="3nuBFxr9cyL0pnOWT2aG-2" edge="1">
          <mxGeometry relative="1" as="geometry">
            <mxPoint x="86" y="270" as="sourcePoint" />
            <mxPoint x="210" y="270" as="targetPoint" />
            <Array as="points">
              <mxPoint x="151" y="270" />
            </Array>
          </mxGeometry>
        </mxCell>
        <mxCell id="V7POjTPoLcevZi_3_g4T-9" value="数据库" style="shape=umlLifeline;perimeter=lifelinePerimeter;container=1;collapsible=0;recursiveResize=0;rounded=0;shadow=0;strokeWidth=1;fontSize=12;fontFamily=Noto Serif SC;fontSource=https%3A%2F%2Ffonts.googleapis.com%2Fcss%3Ffamily%3DNoto%2BSerif%2BSC;" parent="1" vertex="1">
          <mxGeometry x="310" y="190" width="110" height="300" as="geometry" />
        </mxCell>
        <mxCell id="V7POjTPoLcevZi_3_g4T-10" value="" style="points=[];perimeter=orthogonalPerimeter;rounded=0;shadow=0;strokeWidth=1;fontSize=12;fontFamily=Noto Serif SC;fontSource=https%3A%2F%2Ffonts.googleapis.com%2Fcss%3Ffamily%3DNoto%2BSerif%2BSC;" parent="V7POjTPoLcevZi_3_g4T-9" vertex="1">
          <mxGeometry x="50" y="80" width="10" height="210" as="geometry" />
        </mxCell>
        <mxCell id="3nuBFxr9cyL0pnOWT2aG-8" value="2.查询存储的审计结果" style="verticalAlign=bottom;endArrow=block;shadow=0;strokeWidth=1;fontSize=12;fontFamily=Noto Serif SC;fontSource=https%3A%2F%2Ffonts.googleapis.com%2Fcss%3Ffamily%3DNoto%2BSerif%2BSC;" parent="V7POjTPoLcevZi_3_g4T-9" edge="1">
          <mxGeometry relative="1" as="geometry">
            <mxPoint x="-85" y="110" as="sourcePoint" />
            <mxPoint x="48" y="110" as="targetPoint" />
            <Array as="points">
              <mxPoint x="-20" y="110" />
            </Array>
          </mxGeometry>
        </mxCell>
        <mxCell id="V7POjTPoLcevZi_3_g4T-13" value="4.审计未存储审计结果的智能合约" style="verticalAlign=bottom;endArrow=block;entryX=0.04;entryY=0.388;shadow=0;strokeWidth=1;fontSize=12;entryDx=0;entryDy=0;entryPerimeter=0;fontFamily=Noto Serif SC;fontSource=https%3A%2F%2Ffonts.googleapis.com%2Fcss%3Ffamily%3DNoto%2BSerif%2BSC;" parent="1" target="3nuBFxr9cyL0pnOWT2aG-6" edge="1">
          <mxGeometry relative="1" as="geometry">
            <mxPoint x="370" y="339.7" as="sourcePoint" />
            <mxPoint x="503.33000000000004" y="340.3" as="targetPoint" />
            <Array as="points">
              <mxPoint x="435" y="339.7" />
            </Array>
          </mxGeometry>
        </mxCell>
        <mxCell id="V7POjTPoLcevZi_3_g4T-14" value="" style="endArrow=classic;html=1;entryX=1.036;entryY=0.318;entryDx=0;entryDy=0;entryPerimeter=0;fontSize=12;fontFamily=Noto Serif SC;fontSource=https%3A%2F%2Ffonts.googleapis.com%2Fcss%3Ffamily%3DNoto%2BSerif%2BSC;" parent="1" edge="1">
          <mxGeometry width="50" height="50" relative="1" as="geometry">
            <mxPoint x="510" y="360" as="sourcePoint" />
            <mxPoint x="369.9999999999999" y="360.41999999999996" as="targetPoint" />
          </mxGeometry>
        </mxCell>
        <mxCell id="V7POjTPoLcevZi_3_g4T-15" value="&lt;font style=&quot;font-size: 12px;&quot;&gt;5.存储合约审计报告&lt;/font&gt;" style="edgeLabel;html=1;align=center;verticalAlign=middle;resizable=0;points=[];fontSize=12;fontFamily=Noto Serif SC;fontSource=https%3A%2F%2Ffonts.googleapis.com%2Fcss%3Ffamily%3DNoto%2BSerif%2BSC;" parent="V7POjTPoLcevZi_3_g4T-14" vertex="1" connectable="0">
          <mxGeometry x="-0.0105" y="1" relative="1" as="geometry">
            <mxPoint y="-10" as="offset" />
          </mxGeometry>
        </mxCell>
        <mxCell id="V7POjTPoLcevZi_3_g4T-16" value="" style="endArrow=classic;html=1;fontSize=12;fontFamily=Noto Serif SC;fontSource=https%3A%2F%2Ffonts.googleapis.com%2Fcss%3Ffamily%3DNoto%2BSerif%2BSC;" parent="1" edge="1">
          <mxGeometry width="50" height="50" relative="1" as="geometry">
            <mxPoint x="360" y="370" as="sourcePoint" />
            <mxPoint x="226" y="372" as="targetPoint" />
          </mxGeometry>
        </mxCell>
        <mxCell id="V7POjTPoLcevZi_3_g4T-17" value="&lt;font style=&quot;font-size: 12px;&quot;&gt;6.返回合约审计报告&lt;/font&gt;" style="edgeLabel;html=1;align=center;verticalAlign=middle;resizable=0;points=[];fontSize=12;fontFamily=Noto Serif SC;fontSource=https%3A%2F%2Ffonts.googleapis.com%2Fcss%3Ffamily%3DNoto%2BSerif%2BSC;" parent="V7POjTPoLcevZi_3_g4T-16" vertex="1" connectable="0">
          <mxGeometry x="-0.0105" y="1" relative="1" as="geometry">
            <mxPoint y="-10" as="offset" />
          </mxGeometry>
        </mxCell>
        <mxCell id="V7POjTPoLcevZi_3_g4T-18" value="" style="endArrow=classic;html=1;entryX=1.234;entryY=0.523;entryDx=0;entryDy=0;entryPerimeter=0;fontSize=12;fontFamily=Noto Serif SC;fontSource=https%3A%2F%2Ffonts.googleapis.com%2Fcss%3Ffamily%3DNoto%2BSerif%2BSC;" parent="1" target="V7POjTPoLcevZi_3_g4T-3" edge="1">
          <mxGeometry width="50" height="50" relative="1" as="geometry">
            <mxPoint x="215.72" y="380" as="sourcePoint" />
            <mxPoint x="85" y="381" as="targetPoint" />
          </mxGeometry>
        </mxCell>
        <mxCell id="V7POjTPoLcevZi_3_g4T-19" value="&lt;font style=&quot;font-size: 12px;&quot;&gt;7.&lt;font style=&quot;font-size: 12px;&quot;&gt;展示&lt;/font&gt;&lt;/font&gt;&lt;font style=&quot;font-size: 12px;&quot;&gt;合约审计报告&lt;/font&gt;" style="edgeLabel;html=1;align=center;verticalAlign=middle;resizable=0;points=[];fontSize=12;fontFamily=Noto Serif SC;fontSource=https%3A%2F%2Ffonts.googleapis.com%2Fcss%3Ffamily%3DNoto%2BSerif%2BSC;" parent="V7POjTPoLcevZi_3_g4T-18" vertex="1" connectable="0">
          <mxGeometry x="-0.0105" y="1" relative="1" as="geometry">
            <mxPoint y="-10" as="offset" />
          </mxGeometry>
        </mxCell>
        <mxCell id="V7POjTPoLcevZi_3_g4T-20" value="10.查询比特币信息" style="verticalAlign=bottom;endArrow=block;shadow=0;strokeWidth=1;fontSize=12;entryX=0;entryY=0.054;entryDx=0;entryDy=0;entryPerimeter=0;fontFamily=Noto Serif SC;fontSource=https%3A%2F%2Ffonts.googleapis.com%2Fcss%3Ffamily%3DNoto%2BSerif%2BSC;" parent="1" edge="1">
          <mxGeometry relative="1" as="geometry">
            <mxPoint x="86" y="410" as="sourcePoint" />
            <mxPoint x="215" y="410.26" as="targetPoint" />
            <Array as="points">
              <mxPoint x="151" y="410" />
            </Array>
          </mxGeometry>
        </mxCell>
        <mxCell id="V7POjTPoLcevZi_3_g4T-21" value="" style="endArrow=classic;html=1;entryX=1.036;entryY=0.318;entryDx=0;entryDy=0;entryPerimeter=0;exitX=0;exitY=0.621;exitDx=0;exitDy=0;exitPerimeter=0;fontSize=12;fontFamily=Noto Serif SC;fontSource=https%3A%2F%2Ffonts.googleapis.com%2Fcss%3Ffamily%3DNoto%2BSerif%2BSC;" parent="1" source="oefgWrXp9b9dmfqzYPv9-3" edge="1">
          <mxGeometry width="50" height="50" relative="1" as="geometry">
            <mxPoint x="650" y="400" as="sourcePoint" />
            <mxPoint x="369.9999999999998" y="400.41999999999996" as="targetPoint" />
          </mxGeometry>
        </mxCell>
        <mxCell id="V7POjTPoLcevZi_3_g4T-22" value="&lt;font style=&quot;font-size: 12px;&quot;&gt;9.同步最新的比特币信息&lt;/font&gt;" style="edgeLabel;html=1;align=center;verticalAlign=middle;resizable=0;points=[];fontSize=12;fontFamily=Noto Serif SC;fontSource=https%3A%2F%2Ffonts.googleapis.com%2Fcss%3Ffamily%3DNoto%2BSerif%2BSC;" parent="V7POjTPoLcevZi_3_g4T-21" vertex="1" connectable="0">
          <mxGeometry x="-0.0105" y="1" relative="1" as="geometry">
            <mxPoint y="-10" as="offset" />
          </mxGeometry>
        </mxCell>
        <mxCell id="V7POjTPoLcevZi_3_g4T-23" value="11.查询库中比特币信息" style="verticalAlign=bottom;endArrow=block;shadow=0;strokeWidth=1;fontSize=12;entryX=0;entryY=0.054;entryDx=0;entryDy=0;entryPerimeter=0;exitX=0.974;exitY=0.776;exitDx=0;exitDy=0;exitPerimeter=0;fontFamily=Noto Serif SC;fontSource=https%3A%2F%2Ffonts.googleapis.com%2Fcss%3Ffamily%3DNoto%2BSerif%2BSC;" parent="1" source="3nuBFxr9cyL0pnOWT2aG-2" edge="1">
          <mxGeometry relative="1" as="geometry">
            <mxPoint x="230" y="430" as="sourcePoint" />
            <mxPoint x="359" y="430.26" as="targetPoint" />
            <Array as="points">
              <mxPoint x="295" y="430" />
            </Array>
          </mxGeometry>
        </mxCell>
        <mxCell id="V7POjTPoLcevZi_3_g4T-24" value="" style="endArrow=classic;html=1;exitX=-0.133;exitY=0.868;exitDx=0;exitDy=0;exitPerimeter=0;entryX=1.033;entryY=0.873;entryDx=0;entryDy=0;entryPerimeter=0;fontSize=12;fontFamily=Noto Serif SC;fontSource=https%3A%2F%2Ffonts.googleapis.com%2Fcss%3Ffamily%3DNoto%2BSerif%2BSC;" parent="1" source="V7POjTPoLcevZi_3_g4T-10" target="3nuBFxr9cyL0pnOWT2aG-2" edge="1">
          <mxGeometry width="50" height="50" relative="1" as="geometry">
            <mxPoint x="354" y="452" as="sourcePoint" />
            <mxPoint x="230" y="452" as="targetPoint" />
          </mxGeometry>
        </mxCell>
        <mxCell id="V7POjTPoLcevZi_3_g4T-25" value="&lt;font style=&quot;font-size: 12px;&quot;&gt;12.返回比特币信息查询结果&lt;/font&gt;" style="edgeLabel;html=1;align=center;verticalAlign=middle;resizable=0;points=[];fontSize=12;fontFamily=Noto Serif SC;fontSource=https%3A%2F%2Ffonts.googleapis.com%2Fcss%3Ffamily%3DNoto%2BSerif%2BSC;" parent="V7POjTPoLcevZi_3_g4T-24" vertex="1" connectable="0">
          <mxGeometry x="-0.0105" y="1" relative="1" as="geometry">
            <mxPoint y="-10" as="offset" />
          </mxGeometry>
        </mxCell>
        <mxCell id="V7POjTPoLcevZi_3_g4T-26" value="" style="endArrow=classic;html=1;entryX=1.033;entryY=0.914;entryDx=0;entryDy=0;entryPerimeter=0;fontSize=12;fontFamily=Noto Serif SC;fontSource=https%3A%2F%2Ffonts.googleapis.com%2Fcss%3Ffamily%3DNoto%2BSerif%2BSC;" parent="1" target="V7POjTPoLcevZi_3_g4T-3" edge="1">
          <mxGeometry width="50" height="50" relative="1" as="geometry">
            <mxPoint x="214" y="470" as="sourcePoint" />
            <mxPoint x="90" y="472" as="targetPoint" />
          </mxGeometry>
        </mxCell>
        <mxCell id="V7POjTPoLcevZi_3_g4T-27" value="&lt;font style=&quot;font-size: 12px;&quot;&gt;13.返回比特币信息查询和分析结果&lt;/font&gt;" style="edgeLabel;html=1;align=center;verticalAlign=middle;resizable=0;points=[];fontSize=12;fontFamily=Noto Serif SC;fontSource=https%3A%2F%2Ffonts.googleapis.com%2Fcss%3Ffamily%3DNoto%2BSerif%2BSC;" parent="V7POjTPoLcevZi_3_g4T-26" vertex="1" connectable="0">
          <mxGeometry x="-0.0105" y="1" relative="1" as="geometry">
            <mxPoint y="-10" as="offset" />
          </mxGeometry>
        </mxCell>
        <mxCell id="V7POjTPoLcevZi_3_g4T-30" value="&lt;font style=&quot;font-size: 12px;&quot;&gt;循环&lt;/font&gt;" style="shape=umlFrame;whiteSpace=wrap;html=1;width=30;height=15;fontSize=12;fontFamily=Noto Serif SC;fontSource=https%3A%2F%2Ffonts.googleapis.com%2Fcss%3Ffamily%3DNoto%2BSerif%2BSC;" parent="1" vertex="1">
          <mxGeometry x="600" y="280" width="220" height="40" as="geometry" />
        </mxCell>
      </root>
    </mxGraphModel>
  </diagram>
</mxfile>
